<svg xmlns="http://www.w3.org/2000/svg" viewBox="0 0 40 40">
  <defs>
    <clipPath id="clip"><circle cx="20" cy="20" r="19"/></clipPath>
    <filter id="glow"><feGaussianBlur stdDeviation="1.2" result="blur"/>
      <feMerge><feMergeNode in="blur"/><feMergeNode in="SourceGraphic"/></feMerge>
    </filter>
  </defs>
  <circle cx="20" cy="20" r="20" fill="#0d0a1e"/>
  <g clip-path="url(#clip)">
    <rect x="10" y="7" width="20" height="26" rx="5" fill="#160e2e"/>
    <rect x="11" y="14" width="5" height="4" rx="1.5" fill="#fcee09" filter="url(#glow)"/>
    <rect x="24" y="14" width="5" height="4" rx="1.5" fill="#fcee09" filter="url(#glow)"/>
    <rect x="11" y="14" width="5" height="4" rx="1.5" fill="rgba(252,238,9,0.35)"/>
    <rect x="24" y="14" width="5" height="4" rx="1.5" fill="rgba(252,238,9,0.35)"/>
    <rect x="13" y="23" width="14" height="2" rx="1" fill="#1a0820"/>
    <rect x="13" y="23" width="14" height="2" rx="1" fill="#FF003C" opacity="0.7"/>
    <rect x="13" y="23" width="6"  height="2" rx="1" fill="#fcee09"/>
    <line x1="6"  y1="16" x2="10" y2="16" stroke="#fcee09" stroke-width="1" opacity="0.7"/>
    <line x1="30" y1="16" x2="34" y2="16" stroke="#fcee09" stroke-width="1" opacity="0.7"/>
    <line x1="6"  y1="24" x2="10" y2="24" stroke="#FF003C" stroke-width="1" opacity="0.6"/>
    <line x1="30" y1="24" x2="34" y2="24" stroke="#FF003C" stroke-width="1" opacity="0.6"/>
    <circle cx="6"  cy="16" r="1.5" fill="#fcee09" opacity="0.8"/>
    <circle cx="34" cy="16" r="1.5" fill="#fcee09" opacity="0.8"/>
    <line x1="20" y1="7" x2="20" y2="3" stroke="#fcee09" stroke-width="1.2"/>
    <circle cx="20" cy="2.5" r="2" fill="#fcee09" opacity="0.9"/>
  </g>
  <circle cx="20" cy="20" r="19" fill="none" stroke="#FF003C" stroke-width="1.5"/>
</svg>
